<?xml version="1.0" encoding="UTF-8"?>
<svg id="Layer_1" xmlns="http://www.w3.org/2000/svg" version="1.1" viewBox="0 0 24 24">
  <!-- Generator: Adobe Illustrator 30.3.0, SVG Export Plug-In . SVG Version: 2.1.3 Build 182)  -->
  <defs>
    <style>
      .st0 {
        fill: #007bff;
      }
    </style>
  </defs>
  <path class="st0" d="M8,22.5l-2-1.5v-4h-1c-.55,0-1.02-.2-1.41-.59-.39-.39-.59-.86-.59-1.41v-7.5c-.28,0-.52-.1-.71-.29s-.29-.43-.29-.71.1-.52.29-.71.43-.29.71-.29h3v-1.5h-.5c-.28,0-.52-.1-.71-.29s-.29-.43-.29-.71.1-.52.29-.71.43-.29.71-.29h3c.28,0,.52.1.71.29s.29.43.29.71-.1.52-.29.71-.43.29-.71.29h-.5v1.5h3c.28,0,.52.1.71.29s.29.43.29.71-.1.52-.29.71-.43.29-.71.29v7.5c0,.55-.2,1.02-.59,1.41s-.86.59-1.41.59h-1v5.5ZM5,15h4v-1.5h-1.75c-.2,0-.38-.08-.53-.23s-.23-.33-.23-.53.08-.38.23-.53.33-.23.53-.23h1.75v-1.5h-1.75c-.2,0-.38-.08-.53-.23s-.23-.33-.23-.53.08-.38.23-.53.33-.23.53-.23h1.75v-1.5h-4v7.5ZM15,22c-.55,0-1.02-.2-1.41-.59s-.59-.86-.59-1.41v-6.5c0-.48.08-.88.25-1.2s.34-.59.53-.83.35-.42.5-.56.23-.28.23-.41v-.5c-.28,0-.52-.1-.71-.29s-.29-.43-.29-.71.1-.52.29-.71.43-.29.71-.29h5c.28,0,.52.1.71.29s.29.43.29.71-.1.52-.29.71-.43.29-.71.29v.5c0,.13.08.28.25.45s.35.37.55.6c.18.23.35.51.49.83s.21.69.21,1.13v6.5c0,.55-.2,1.02-.59,1.41s-.86.59-1.41.59h-4ZM15,14h4v-.5c0-.25-.08-.47-.23-.65s-.32-.38-.5-.6-.36-.46-.53-.73-.25-.61-.25-1.03v-.5h-1v.5c0,.4-.08.73-.24,1s-.33.51-.51.73-.35.42-.51.61-.24.41-.24.66v.5ZM15,17h4v-1.5h-4v1.5ZM15,20h4v-1.5h-4v1.5ZM15,17h4-4Z"/>
</svg>