<?xml version="1.0" encoding="UTF-8"?>
<svg id="Layer_1" xmlns="http://www.w3.org/2000/svg" version="1.1" viewBox="0 0 24 24">
  <!-- Generator: Adobe Illustrator 30.3.0, SVG Export Plug-In . SVG Version: 2.1.3 Build 182)  -->
  <defs>
    <style>
      .st0 {
        fill: #007bff;
      }
    </style>
  </defs>
  <path class="st0" d="M9.75,21c-.85,0-1.58-.3-2.2-.89s-.97-1.3-1.05-2.14c-1-.13-1.83-.58-2.5-1.33s-1-1.63-1-2.65c0-.35.05-.7.14-1.04.09-.34.23-.66.41-.96-.18-.3-.32-.62-.41-.95-.09-.33-.14-.68-.14-1.05,0-1.02.33-1.9,1-2.64s1.49-1.18,2.48-1.31c.05-.85.39-1.57,1.03-2.16s1.38-.89,2.25-.89c.43,0,.84.08,1.21.25s.72.39,1.04.68c.3-.28.64-.51,1.03-.68.38-.17.79-.25,1.23-.25.87,0,1.61.29,2.24.88s.96,1.3,1.01,2.15c.98.13,1.81.58,2.49,1.33s1.01,1.63,1.01,2.65c0,.37-.05.72-.14,1.05-.09.33-.23.65-.41.95.18.3.32.62.41.96s.14.69.14,1.04c0,1.03-.34,1.92-1.01,2.66s-1.51,1.18-2.51,1.31c-.08.83-.43,1.55-1.04,2.14s-1.34.89-2.19.89c-.42,0-.82-.08-1.21-.24-.39-.16-.74-.38-1.04-.66-.32.28-.67.5-1.05.66-.38.16-.78.24-1.2.24ZM13,6.25v11.5c0,.35.12.65.36.89s.54.36.89.36.62-.13.86-.4.37-.57.39-.9c-.35-.13-.67-.31-.96-.54s-.55-.5-.79-.81c-.17-.23-.23-.48-.19-.75s.18-.48.41-.65.48-.23.75-.19.48.18.65.41c.18.27.42.47.7.61s.59.21.93.21c.55,0,1.02-.2,1.41-.59s.59-.86.59-1.41c0-.08,0-.17-.01-.25s-.03-.17-.06-.25c-.28.17-.59.29-.91.38s-.66.13-1.01.13c-.28,0-.52-.1-.71-.29s-.29-.43-.29-.71.1-.52.29-.71.43-.29.71-.29c.55,0,1.02-.2,1.41-.59.39-.39.59-.86.59-1.41s-.2-1.02-.59-1.4-.86-.58-1.41-.6c-.18.3-.42.56-.71.79s-.61.4-.96.54c-.27.1-.53.09-.78-.03s-.42-.31-.5-.58-.07-.53.04-.78.3-.42.56-.5c.25-.08.45-.23.61-.45s.24-.47.24-.75c0-.35-.12-.65-.36-.89s-.54-.36-.89-.36-.65.12-.89.36-.36.54-.36.89ZM11,17.75V6.25c0-.35-.12-.65-.36-.89s-.54-.36-.89-.36-.65.12-.89.36-.36.54-.36.89c0,.27.08.51.23.74s.35.38.6.46c.27.08.46.25.58.5s.13.51.05.78c-.1.27-.28.46-.53.58s-.51.13-.78.03c-.35-.13-.67-.31-.96-.54s-.53-.49-.71-.79c-.53.02-1,.22-1.39.61s-.59.85-.59,1.39.2,1.02.59,1.41c.39.39.86.59,1.41.59.28,0,.52.1.71.29s.29.43.29.71-.1.52-.29.71-.43.29-.71.29c-.35,0-.69-.04-1.01-.13s-.63-.21-.91-.38c-.03.08-.05.17-.06.25s-.01.17-.01.25c0,.55.2,1.02.59,1.41s.86.59,1.41.59c.33,0,.64-.07.93-.21s.52-.35.7-.61c.17-.23.38-.37.65-.41s.52.02.75.19.37.38.41.65-.02.52-.19.75c-.23.32-.5.59-.8.83s-.63.42-.98.55c.02.33.15.63.4.89s.54.39.88.39c.35,0,.65-.12.89-.36s.36-.54.36-.89Z"/>
</svg>