<?xml version="1.0" encoding="UTF-8"?>
<svg id="Layer_1" xmlns="http://www.w3.org/2000/svg" version="1.1" viewBox="0 0 24 24">
  <!-- Generator: Adobe Illustrator 30.3.0, SVG Export Plug-In . SVG Version: 2.1.3 Build 182)  -->
  <defs>
    <style>
      .st0 {
        fill: #007bff;
      }
    </style>
  </defs>
  <path class="st0" d="M9.14,20.17c-.84-.55-1.53-1.28-2.06-2.18l-2.38,1.35-1-1.73,2.58-1.5c-.05-.18-.09-.37-.13-.56s-.07-.38-.1-.56h-3.05v-2h3.05c.03-.2.07-.4.1-.59s.08-.38.13-.56l-2.58-1.5,1-1.73,2.35,1.38c.13-.23.29-.46.46-.69s.35-.43.54-.61c-.03-.12-.05-.23-.05-.35v-.35c0-.4.06-.78.18-1.15s.28-.71.48-1.03l-1.65-1.65,1.4-1.43,1.75,1.7c.28-.15.58-.26.89-.34s.63-.11.96-.11.66.04.98.13c.32.08.62.2.9.35l1.73-1.73,1.4,1.43-1.65,1.65c.2.32.35.66.46,1.03s.16.75.16,1.15v.34c0,.11-.02.22-.05.34.18.18.36.39.54.63s.33.47.46.7l2.38-1.35,1,1.73-2.6,1.48c.05.18.1.37.14.56s.08.39.11.59h3.05v2h-3.05c-.03.2-.07.4-.1.59s-.08.38-.13.56l2.58,1.5-1,1.73-2.38-1.38c-.53.9-1.22,1.63-2.06,2.18s-1.8.83-2.86.83-2.02-.28-2.86-.83ZM10.1,7.35c.28-.12.59-.2.91-.26s.65-.09.99-.09.65.03.96.08c.31.05.6.13.89.25-.13-.38-.37-.7-.7-.95s-.72-.38-1.15-.38-.83.13-1.18.39-.59.58-.73.96ZM12,19c1.22,0,2.19-.51,2.91-1.53.73-1.02,1.09-2.18,1.09-3.48,0-1.17-.34-2.29-1.01-3.38-.68-1.08-1.67-1.63-2.99-1.63s-2.29.54-2.98,1.61-1.03,2.2-1.03,3.39c0,1.3.36,2.46,1.09,3.48.73,1.02,1.7,1.53,2.91,1.53ZM11,17v-6h2v6h-2Z"/>
</svg>