<?xml version="1.0" encoding="UTF-8"?>
<svg id="Layer_1" data-name="Layer 1" xmlns="http://www.w3.org/2000/svg" viewBox="0 0 17.17 24.32">
  <defs>
    <style>
      .cls-1 {
        fill: #007bff;
      }
    </style>
  </defs>
  <path class="cls-1" d="M8.58,16.76l-5.4,7.55-3.18-4.51,5.43-7.55c-.83-1.28-1.61-2.34-2.26-3.63-.88-1.74-.77-4.08.11-5.77C4.37.74,6.63-.03,8.9,0c2.46.03,4.55,1.24,5.34,3.65.54,1.67.58,3.82-.4,5.35l-2.09,3.26,5.43,7.55-3.19,4.5-5.4-7.54ZM9.63,6.33c.56-.76.86-1.89.61-2.78-1.16-.21-2.35-.15-3.42.13-.15,1.78.82,2.82,1.76,4.07l1.05-1.43ZM6.61,10.45c.32-.29.71-.74.63-.95-.4-1.04-1.95-2.24-2.57-4.91-.14.97-.21,2.44.35,3.33l1.59,2.53ZM3.25,20.81l8.79-12.63c.72-1.04.61-2.53.42-3.57l-.94,2.57L2.48,19.79l.77,1.02ZM13.97,20.85l.7-1.12-4.14-5.7-.69,1.05,4.13,5.77Z"/>
</svg>