<?xml version="1.0" encoding="UTF-8"?>
<svg id="Layer_1" xmlns="http://www.w3.org/2000/svg" version="1.1" viewBox="0 0 24 24">
  <!-- Generator: Adobe Illustrator 30.3.0, SVG Export Plug-In . SVG Version: 2.1.3 Build 182)  -->
  <defs>
    <style>
      .st0 {
        fill: #007bff;
      }
    </style>
  </defs>
  <path class="st0" d="M7.3,21c-.63,0-1.18-.23-1.63-.69s-.68-1-.68-1.64v-9.28l-1.83-4.4H1v-2h3.53l1.65,4h14.78c.38,0,.68.16.88.48s.21.64.03.98l-2.85,5.58c.85.13,1.56.53,2.14,1.18s.86,1.42.86,2.3c0,.97-.34,1.79-1.01,2.48s-1.5,1.03-2.46,1.03-1.81-.34-2.49-1.03-1.01-1.51-1.01-2.48c0-.33.04-.64.13-.93s.2-.56.35-.83l-3.28-.3-3,4.5c-.22.33-.5.59-.84.78-.34.18-.7.28-1.09.28ZM16.85,13.87l2.48-4.88H7l1.25,3c.13.33.35.61.64.84s.63.35,1.01.39l6.95.65ZM7.33,18.97s.11-.04.23-.13l2.43-3.6c-.82-.08-1.46-.28-1.93-.59s-.82-.63-1.05-.96v5c0,.08.03.15.1.2s.14.08.23.08ZM18.5,19c.43,0,.79-.15,1.08-.44s.43-.65.43-1.06-.14-.79-.43-1.08-.64-.43-1.08-.43-.77.14-1.06.43-.44.64-.44,1.08.15.77.44,1.06.65.44,1.06.44ZM16.85,13.87l-6.95-.65,6.95.65Z"/>
</svg>