<?xml version="1.0" encoding="UTF-8"?>
<svg id="Layer_1" xmlns="http://www.w3.org/2000/svg" version="1.1" viewBox="0 0 800 800">
  <!-- Generator: Adobe Illustrator 30.3.0, SVG Export Plug-In . SVG Version: 2.1.3 Build 182)  -->
  <defs>
    <style>
      .st0 {
        fill: none;
        stroke: #007bff;
        stroke-linecap: round;
        stroke-linejoin: round;
        stroke-opacity: .9;
        stroke-width: 60px;
      }
    </style>
  </defs>
  <path class="st0" d="M210.98,235.05c15.84-35.61,29.74-77.34,64.42-99.02,163.42-102.14,332.62,57.62,307.79,231.44-14.37,100.6-120.16,154.42-162.25,238.6-36.07,72.15-178.27,139.75-189.69,36.98"/>
  <path class="st0" d="M439.13,477.22c84.44-89.55,63.15-299.82-76.35-293.48-104.98,4.77-80.5,145.61-56.07,194.46"/>
  <path class="st0" d="M305.45,310.21c111.84-7.76,149.87,109.98,77.32,182.53-18.9,18.9-55.43-8.56-77.32,2.38-21.9,10.95-38.3,45.46-59.88,20.28"/>
</svg>