<?xml version="1.0" encoding="UTF-8"?>
<svg id="Layer_1" xmlns="http://www.w3.org/2000/svg" version="1.1" viewBox="0 0 24 24">
  <!-- Generator: Adobe Illustrator 30.3.0, SVG Export Plug-In . SVG Version: 2.1.3 Build 182)  -->
  <defs>
    <style>
      .st0 {
        fill: #007bff;
      }
    </style>
  </defs>
  <path class="st0" d="M8.11,15.89c-.24-.24-.36-.54-.36-.89s.12-.65.36-.89.54-.36.89-.36.65.12.89.36.36.54.36.89-.12.65-.36.89-.54.36-.89.36-.65-.12-.89-.36ZM14.11,15.89c-.24-.24-.36-.54-.36-.89s.12-.65.36-.89.54-.36.89-.36.65.12.89.36.36.54.36.89-.12.65-.36.89-.54.36-.89.36-.65-.12-.89-.36ZM12,22c2.23,0,4.13-.78,5.68-2.33s2.33-3.44,2.33-5.68c0-.4-.03-.79-.08-1.16s-.14-.74-.28-1.09c-.35.08-.7.15-1.05.19s-.72.06-1.1.06c-1.52,0-2.95-.33-4.3-.98s-2.5-1.56-3.45-2.73c-.53,1.3-1.3,2.43-2.29,3.39-.99.96-2.15,1.68-3.46,2.16v.15c0,2.23.78,4.13,2.33,5.68s3.44,2.33,5.68,2.33ZM10.65,6.12c.7,1.17,1.65,2.1,2.85,2.81s2.53,1.06,4,1.06c.23,0,.46-.01.68-.04s.44-.05.68-.09c-.7-1.17-1.65-2.1-2.85-2.81s-2.53-1.06-4-1.06c-.23,0-.46.01-.68.04s-.44.05-.68.09ZM4.43,11.47c.85-.48,1.59-1.11,2.23-1.88.63-.77,1.11-1.63,1.43-2.58-.85.48-1.59,1.11-2.23,1.88-.63.77-1.11,1.63-1.43,2.58ZM3.18,9.32c.47-.88,1.05-1.68,1.76-2.39s1.5-1.3,2.39-1.76c-.28-.35-.63-.63-1.03-.85s-.84-.33-1.33-.33c-.83,0-1.54.29-2.11.86s-.86,1.28-.86,2.11c0,.48.11.93.33,1.33s.5.74.85,1.03ZM8.1,23.21c-1.22-.53-2.28-1.24-3.18-2.14s-1.61-1.96-2.14-3.18c-.53-1.22-.79-2.52-.79-3.9,0-.48.03-.96.1-1.44s.17-.93.3-1.36c-.72-.43-1.3-1.02-1.74-1.76-.44-.74-.66-1.56-.66-2.46,0-1.38.48-2.56,1.45-3.53.97-.97,2.14-1.45,3.53-1.45.88,0,1.7.21,2.44.64s1.34,1.01,1.79,1.76c.43-.13.89-.23,1.36-.3s.95-.1,1.44-.1c1.38,0,2.68.26,3.9.79s2.28,1.24,3.18,2.14,1.61,1.96,2.14,3.18c.53,1.22.79,2.52.79,3.9s-.26,2.68-.79,3.9c-.53,1.22-1.24,2.28-2.14,3.18s-1.96,1.61-3.18,2.14-2.52.79-3.9.79-2.68-.26-3.9-.79Z"/>
</svg>