<?xml version="1.0" encoding="UTF-8"?>
<svg id="Layer_1" xmlns="http://www.w3.org/2000/svg" version="1.1" viewBox="0 0 24 24">
  <!-- Generator: Adobe Illustrator 30.3.0, SVG Export Plug-In . SVG Version: 2.1.3 Build 182)  -->
  <defs>
    <style>
      .st0 {
        fill: #007bff;
      }
    </style>
  </defs>
  <path class="st0" d="M15,22c-.28,0-.52-.1-.71-.29s-.29-.43-.29-.71v-1.08c-.38-.07-.75-.16-1.09-.29-.34-.13-.66-.3-.96-.51l-1,1c-.2.18-.44.28-.71.29s-.51-.09-.71-.29-.3-.44-.3-.71.1-.51.3-.71l1.03-1.03c-.05-.08-.1-.17-.15-.26s-.1-.18-.15-.26l-.68-1.33-1.23,1.23c-.2.18-.43.28-.7.29s-.5-.09-.7-.29-.3-.43-.3-.7.1-.5.3-.7l1.23-1.25-1.33-.65c-.08-.03-.16-.07-.23-.11s-.14-.09-.23-.14l-.9.9c-.2.18-.44.28-.71.29s-.51-.09-.71-.29-.3-.43-.3-.7.1-.5.3-.7l.88-.88c-.23-.32-.42-.65-.56-1.01-.14-.36-.25-.73-.31-1.11h-1.08c-.28,0-.52-.1-.71-.29s-.29-.43-.29-.71.1-.52.29-.71.43-.29.71-.29h1.13c.08-.32.18-.62.3-.9s.27-.56.45-.83l-.88-.88c-.2-.2-.3-.43-.3-.7s.1-.5.3-.7.43-.3.7-.3.5.1.7.3l.88.88c.27-.18.54-.33.83-.45s.58-.22.9-.3v-1.13c0-.28.1-.52.29-.71s.43-.29.71-.29.52.1.71.29.29.43.29.71v1.08c.4.07.78.18,1.14.33s.7.34,1.01.58l.88-.88c.2-.2.44-.3.71-.3s.51.1.71.3.3.43.3.7-.1.5-.3.7l-.93.93c.03.07.07.13.11.2s.08.14.11.23l.63,1.25,1.15-1.15c.2-.2.44-.3.71-.3s.51.1.71.3.3.44.3.71-.1.51-.3.71l-1.2,1.18,1.4.7c.1.05.2.1.31.16s.2.12.29.19l1-1c.2-.2.43-.3.7-.3s.5.1.7.3.3.44.3.71-.1.51-.3.71l-1,.98c.2.3.36.62.49.95s.22.68.29,1.05h1.08c.28,0,.52.1.71.29s.29.43.29.71-.1.52-.29.71-.43.29-.71.29h-1.13c-.08.32-.18.61-.3.89s-.27.55-.45.81l.85.85c.2.2.3.44.3.71s-.1.51-.3.71c-.2.18-.44.28-.71.29s-.51-.09-.71-.29l-.83-.85c-.27.18-.54.33-.83.45s-.58.22-.9.3v1.13c0,.28-.1.52-.29.71s-.43.29-.71.29ZM14.85,18c.97,0,1.76-.37,2.39-1.1.63-.73.86-1.58.71-2.55-.08-.5-.27-.95-.56-1.35s-.67-.72-1.14-.95l-1.65-.85c-.38-.2-.73-.45-1.04-.76s-.56-.65-.76-1.04l-.85-1.65c-.27-.53-.65-.96-1.15-1.28s-1.05-.48-1.65-.48c-.97,0-1.76.37-2.39,1.1s-.86,1.58-.71,2.55c.08.5.27.95.56,1.35.29.4.67.72,1.14.95l1.65.85c.38.2.73.45,1.04.76s.56.65.76,1.04l.85,1.65c.27.53.65.96,1.15,1.28.5.32,1.05.48,1.65.48ZM9.5,10.5c.42,0,.77-.15,1.06-.44s.44-.65.44-1.06-.15-.77-.44-1.06-.65-.44-1.06-.44-.77.15-1.06.44-.44.65-.44,1.06.15.77.44,1.06.65.44,1.06.44ZM15.39,16.39c.24-.24.36-.54.36-.89s-.12-.65-.36-.89-.54-.36-.89-.36-.65.12-.89.36-.36.54-.36.89.12.65.36.89.54.36.89.36.65-.12.89-.36Z"/>
</svg>