<?xml version="1.0" encoding="UTF-8"?>
<svg id="Layer_1" xmlns="http://www.w3.org/2000/svg" version="1.1" viewBox="0 0 24 24">
  <!-- Generator: Adobe Illustrator 30.3.0, SVG Export Plug-In . SVG Version: 2.1.3 Build 182)  -->
  <defs>
    <style>
      .st0 {
        fill: #007bff;
      }
    </style>
  </defs>
  <path class="st0" d="M6,14c0,.87.18,1.69.53,2.46s.85,1.45,1.5,2.04c-.02-.08-.03-.16-.03-.23v-.23c0-.53.1-1.03.3-1.5s.49-.89.88-1.28l2.83-2.78,2.83,2.78c.38.38.68.81.88,1.28s.3.97.3,1.5v.23c0,.07,0,.14-.03.23.65-.58,1.15-1.26,1.5-2.04s.53-1.6.53-2.46-.15-1.62-.46-2.36c-.31-.74-.75-1.4-1.34-1.99-.33.22-.68.38-1.05.49s-.74.16-1.13.16c-1.03,0-1.93-.34-2.69-1.03s-1.2-1.53-1.31-2.53c-.65.55-1.23,1.12-1.73,1.71s-.92,1.19-1.26,1.8-.6,1.23-.78,1.86-.26,1.26-.26,1.88ZM12,15.3l-1.43,1.4c-.18.18-.33.39-.43.63s-.15.48-.15.73c0,.53.2.99.59,1.38s.86.58,1.41.58,1.02-.19,1.41-.58.59-.84.59-1.38c0-.27-.05-.51-.15-.74s-.24-.43-.43-.61l-1.43-1.4ZM12,3v3.3c0,.57.2,1.04.59,1.43.39.38.87.58,1.44.58.3,0,.58-.06.84-.19s.49-.31.69-.56l.45-.55c1.23.7,2.21,1.68,2.93,2.93s1.08,2.61,1.08,4.08c0,2.23-.78,4.13-2.33,5.68s-3.44,2.33-5.68,2.33-4.13-.78-5.68-2.33-2.33-3.44-2.33-5.68.72-4.19,2.16-6.13c1.44-1.93,3.39-3.56,5.84-4.88Z"/>
</svg>