<?xml version="1.0" encoding="UTF-8"?>
<svg id="Layer_1" xmlns="http://www.w3.org/2000/svg" version="1.1" viewBox="0 0 24 24">
  <!-- Generator: Adobe Illustrator 30.3.0, SVG Export Plug-In . SVG Version: 2.1.3 Build 182)  -->
  <defs>
    <style>
      .st0 {
        fill: #007bff;
      }
    </style>
  </defs>
  <path class="st0" d="M12,10c-1.1,0-2.04-.39-2.83-1.18s-1.18-1.73-1.18-2.83.39-2.04,1.18-2.83,1.73-1.18,2.83-1.18,2.04.39,2.83,1.18,1.18,1.73,1.18,2.83-.39,2.04-1.18,2.83-1.73,1.18-2.83,1.18ZM12,8c.55,0,1.02-.2,1.41-.59s.59-.86.59-1.41-.2-1.02-.59-1.41-.86-.59-1.41-.59-1.02.2-1.41.59-.59.86-.59,1.41.2,1.02.59,1.41.86.59,1.41.59ZM4,22v-6.78c0-.57.14-1.09.43-1.56s.68-.85,1.18-1.11c.85-.43,1.81-.8,2.89-1.1s2.25-.45,3.51-.45,2.44.15,3.51.45,2.04.67,2.89,1.1c.5.27.89.64,1.18,1.11s.43,1,.43,1.56v4.78c0,.55-.2,1.02-.59,1.41s-.86.59-1.41.59h-8.25c-.77,0-1.42-.27-1.95-.8-.53-.53-.8-1.18-.8-1.95s.27-1.42.8-1.95c.53-.53,1.18-.8,1.95-.8h2.83l1.55-3.3c-.33-.07-.68-.12-1.03-.15s-.72-.05-1.1-.05c-1.2,0-2.27.15-3.2.44s-1.69.6-2.28.91c-.17.08-.3.2-.39.36s-.14.33-.14.51v6.78h-2ZM9.75,20h1.2l.7-1.5h-1.9c-.2,0-.38.08-.53.23s-.23.33-.23.53.08.38.23.53.33.23.53.23ZM13.15,20h4.85v-4.78c0-.18-.05-.35-.14-.51s-.21-.28-.36-.36c-.2-.1-.42-.2-.65-.31s-.48-.21-.75-.31l-2.95,6.28Z"/>
</svg>