<?xml version="1.0" encoding="UTF-8"?>
<svg id="Layer_1" xmlns="http://www.w3.org/2000/svg" version="1.1" viewBox="0 0 24 24">
  <!-- Generator: Adobe Illustrator 30.3.0, SVG Export Plug-In . SVG Version: 2.1.3 Build 182)  -->
  <defs>
    <style>
      .st0 {
        fill: #007bff;
      }
    </style>
  </defs>
  <path class="st0" d="M2.88,14.12c-.58-.58-.88-1.29-.88-2.13s.29-1.54.88-2.13c.58-.58,1.29-.88,2.13-.88s1.54.29,2.13.88.88,1.29.88,2.13-.29,1.54-.88,2.13-1.29.88-2.13.88-1.54-.29-2.13-.88ZM5.71,12.71c.19-.19.29-.43.29-.71s-.1-.52-.29-.71c-.19-.19-.43-.29-.71-.29s-.52.1-.71.29c-.19.19-.29.43-.29.71s.1.52.29.71.43.29.71.29.52-.1.71-.29ZM9.88,14.12c-.58-.58-.88-1.29-.88-2.13s.29-1.54.88-2.13,1.29-.88,2.13-.88,1.54.29,2.13.88.88,1.29.88,2.13-.29,1.54-.88,2.13-1.29.88-2.13.88-1.54-.29-2.13-.88ZM12.71,12.71c.19-.19.29-.43.29-.71s-.1-.52-.29-.71c-.19-.19-.43-.29-.71-.29s-.52.1-.71.29c-.19.19-.29.43-.29.71s.1.52.29.71.43.29.71.29.52-.1.71-.29ZM16.88,14.12c-.58-.58-.88-1.29-.88-2.13s.29-1.54.88-2.13,1.29-.88,2.13-.88,1.54.29,2.13.88.88,1.29.88,2.13-.29,1.54-.88,2.13-1.29.88-2.13.88-1.54-.29-2.13-.88Z"/>
</svg>