<?xml version="1.0" encoding="UTF-8"?>
<svg id="Layer_1" xmlns="http://www.w3.org/2000/svg" version="1.1" viewBox="0 0 24 24">
  <!-- Generator: Adobe Illustrator 30.3.0, SVG Export Plug-In . SVG Version: 2.1.3 Build 182)  -->
  <defs>
    <style>
      .st0 {
        fill: #007bff;
      }
    </style>
  </defs>
  <path class="st0" d="M5.5,17.5c-1.53,0-2.83-.53-3.9-1.6-1.07-1.07-1.6-2.37-1.6-3.9s.53-2.83,1.6-3.9c1.07-1.07,2.37-1.6,3.9-1.6.62,0,1.21.11,1.78.33s1.08.53,1.53.93l1.7,1.55-1.5,1.35-1.55-1.4c-.27-.23-.57-.42-.9-.55-.33-.13-.68-.2-1.05-.2-.97,0-1.79.34-2.48,1.03-.68.68-1.03,1.51-1.03,2.48s.34,1.79,1.03,2.48c.68.68,1.51,1.03,2.48,1.03.37,0,.72-.07,1.05-.2.33-.13.63-.32.9-.55l7.75-7c.45-.4.96-.71,1.53-.93s1.16-.33,1.78-.33c1.53,0,2.83.53,3.9,1.6s1.6,2.37,1.6,3.9-.53,2.83-1.6,3.9-2.37,1.6-3.9,1.6c-.62,0-1.21-.11-1.78-.33s-1.08-.53-1.53-.93l-1.7-1.55,1.5-1.35,1.55,1.4c.27.23.57.42.9.55s.68.2,1.05.2c.97,0,1.79-.34,2.48-1.03s1.03-1.51,1.03-2.48-.34-1.79-1.03-2.48-1.51-1.03-2.48-1.03c-.37,0-.72.07-1.05.2s-.63.32-.9.55l-7.75,7c-.45.4-.96.71-1.53.93s-1.16.33-1.78.33Z"/>
</svg>