<?xml version="1.0" encoding="UTF-8"?>
<svg id="Layer_1" xmlns="http://www.w3.org/2000/svg" version="1.1" viewBox="0 0 24 24">
  <!-- Generator: Adobe Illustrator 30.3.0, SVG Export Plug-In . SVG Version: 2.1.3 Build 182)  -->
  <defs>
    <style>
      .st0 {
        fill: #007bff;
      }
    </style>
  </defs>
  <path class="st0" d="M8.08,11.8l5.25.58.4-.85-1.53-.83-2.33-.2.15-1.98,2.78.2,5.53,3.08c.28.17.58.27.89.31s.59-.03.84-.21l-4.9-4.9h-6.23l-1.63-2.4-2.75,1.38,1.9,4.58c.13.35.35.63.64.85.29.22.62.35.99.4ZM7.85,13.77c-.73-.08-1.39-.34-1.96-.78s-1-.99-1.29-1.68l-2.6-6.33,6-3,2,3h5.2c.27,0,.53.05.78.16s.47.25.65.44l6.38,6.4-.85.85c-.63.63-1.39,1.01-2.28,1.14s-1.72-.03-2.5-.46l-1.9-1.03-.33.73c-.18.38-.46.68-.83.89s-.77.29-1.2.24l-5.28-.58ZM3.25,20.97l-.55-1.93,4.75-1.25c1.2-.32,2.48-.61,3.83-.89s2.58-.41,3.7-.41c1.25,0,2.41.25,3.49.75s2.14,1.18,3.19,2.03l-1.35,1.48c-.85-.72-1.73-1.27-2.64-1.66s-1.8-.59-2.69-.59c-1.07,0-2.24.14-3.53.41s-2.44.55-3.48.81l-4.73,1.25Z"/>
</svg>