<?xml version="1.0" encoding="UTF-8"?>
<svg id="Layer_1" xmlns="http://www.w3.org/2000/svg" version="1.1" viewBox="0 0 30 26">
  <!-- Generator: Adobe Illustrator 30.3.0, SVG Export Plug-In . SVG Version: 2.1.3 Build 182)  -->
  <defs>
    <style>
      .st0 {
        fill: #fff;
      }
    </style>
  </defs>
  <path class="st0" d="M24,0H6v5.78h18M25.5,13c-.4,0-.78-.15-1.06-.42-.28-.27-.44-.64-.44-1.02s.16-.75.44-1.02c.28-.27.66-.42,1.06-.42s.78.15,1.06.42c.28.27.44.64.44,1.02s-.16.75-.44,1.02c-.28.27-.66.42-1.06.42ZM21,23.11h-12v-7.22h12M25.5,7.22H4.5c-1.19,0-2.34.46-3.18,1.27-.84.81-1.32,1.91-1.32,3.06v8.67h6v5.78h18v-5.78h6v-8.67c0-1.15-.47-2.25-1.32-3.06-.84-.81-1.99-1.27-3.18-1.27Z"/>
</svg>