<?xml version="1.0" encoding="UTF-8"?>
<svg id="Layer_1" xmlns="http://www.w3.org/2000/svg" version="1.1" viewBox="0 0 24 24">
  <!-- Generator: Adobe Illustrator 30.3.0, SVG Export Plug-In . SVG Version: 2.1.3 Build 182)  -->
  <defs>
    <style>
      .st0 {
        fill: #007bff;
      }
    </style>
  </defs>
  <path class="st0" d="M12,20c-2.23,0-4.13-.78-5.68-2.33s-2.33-3.44-2.33-5.68.78-4.13,2.33-5.68,3.44-2.33,5.68-2.33c1.15,0,2.25.24,3.3.71s1.95,1.15,2.7,2.04v-2.75h2v7h-7v-2h4.2c-.53-.93-1.26-1.67-2.19-2.2s-1.93-.8-3.01-.8c-1.67,0-3.08.58-4.25,1.75s-1.75,2.58-1.75,4.25.58,3.08,1.75,4.25,2.58,1.75,4.25,1.75c1.28,0,2.44-.37,3.48-1.1,1.03-.73,1.76-1.7,2.18-2.9h2.1c-.47,1.77-1.42,3.21-2.85,4.33-1.43,1.12-3.07,1.68-4.9,1.68Z"/>
</svg>