<?xml version="1.0" encoding="UTF-8"?>
<svg id="Layer_1" xmlns="http://www.w3.org/2000/svg" version="1.1" viewBox="0 0 24 24">
  <!-- Generator: Adobe Illustrator 30.3.0, SVG Export Plug-In . SVG Version: 2.1.3 Build 182)  -->
  <defs>
    <style>
      .st0 {
        fill: #007bff;
      }
    </style>
  </defs>
  <path class="st0" d="M11,5V1h2v4h-2ZM17.65,7.75l-1.38-1.38,2.8-2.88,1.4,1.43-2.83,2.83ZM19,13v-2h4v2h-4ZM11,23v-4h2v4h-2ZM6.35,7.7l-2.85-2.78,1.43-1.4,2.83,2.83-1.4,1.35ZM19.05,20.5l-2.78-2.88,1.35-1.35,2.85,2.75-1.43,1.48ZM1,13v-2h4v2H1ZM4.93,20.5l-1.4-1.43,2.8-2.8.73.68.73.7-2.85,2.85ZM7.75,16.25c-1.17-1.17-1.75-2.58-1.75-4.25s.58-3.08,1.75-4.25,2.58-1.75,4.25-1.75,3.08.58,4.25,1.75,1.75,2.58,1.75,4.25-.58,3.08-1.75,4.25-2.58,1.75-4.25,1.75-3.08-.58-4.25-1.75ZM14.83,14.82c.78-.78,1.18-1.73,1.18-2.83s-.39-2.04-1.18-2.83-1.73-1.18-2.83-1.18-2.04.39-2.83,1.18-1.18,1.73-1.18,2.83.39,2.04,1.18,2.83,1.73,1.18,2.83,1.18,2.04-.39,2.83-1.18Z"/>
</svg>