<?xml version="1.0" encoding="UTF-8"?>
<svg id="Layer_1" xmlns="http://www.w3.org/2000/svg" version="1.1" viewBox="0 0 24 24">
  <!-- Generator: Adobe Illustrator 30.3.0, SVG Export Plug-In . SVG Version: 2.1.3 Build 182)  -->
  <defs>
    <style>
      .st0 {
        fill: #007bff;
      }
    </style>
  </defs>
  <path class="st0" d="M12.4,15.35l-3.75-3.75L16.95,3.3c.2-.2.44-.3.71-.3s.51.1.71.3l2.33,2.33c.2.2.3.44.3.71s-.1.51-.3.71l-8.3,8.3ZM12.4,12.5l6.2-6.18-.93-.93-6.18,6.2.9.9ZM11,21l2-2h9v2h-11ZM5.08,21c-.77,0-1.5-.15-2.21-.45-.71-.3-1.33-.72-1.86-1.25l6.63-6.6,2.6,2.6c.23.23.42.5.55.8s.2.62.2.95-.07.65-.2.96-.32.58-.55.81l-.48.48c-.53.53-1.15.95-1.86,1.25s-1.45.45-2.21.45h-.6ZM5.08,19h.6c.5,0,.98-.1,1.45-.29s.88-.46,1.23-.81l.48-.48c.1-.1.15-.22.15-.35s-.05-.25-.15-.35l-1.2-1.2-3.4,3.38c.13.03.28.06.43.08s.29.03.43.03ZM18.6,6.32l-.93-.93.93.93Z"/>
</svg>