<?xml version="1.0" encoding="UTF-8"?>
<svg id="Layer_1" xmlns="http://www.w3.org/2000/svg" version="1.1" viewBox="0 0 24 24">
  <!-- Generator: Adobe Illustrator 30.3.0, SVG Export Plug-In . SVG Version: 2.1.3 Build 182)  -->
  <defs>
    <style>
      .st0 {
        fill: #007bff;
      }
    </style>
  </defs>
  <path class="st0" d="M11.5,20c-.83,0-1.54-.29-2.13-.88s-.88-1.29-.88-2.13h2c0,.28.1.52.29.71.19.19.43.29.71.29s.52-.1.71-.29c.19-.19.29-.43.29-.71s-.1-.52-.29-.71-.43-.29-.71-.29H2v-2h9.5c.83,0,1.54.29,2.13.88s.88,1.29.88,2.13-.29,1.54-.88,2.13-1.29.88-2.13.88ZM2,10v-2h13.5c.43,0,.79-.14,1.08-.43s.43-.64.43-1.08-.14-.79-.43-1.08-.64-.43-1.08-.43-.79.14-1.08.43-.43.64-.43,1.08h-2c0-.98.34-1.81,1.01-2.49s1.5-1.01,2.49-1.01,1.81.34,2.49,1.01,1.01,1.5,1.01,2.49-.34,1.81-1.01,2.49-1.5,1.01-2.49,1.01H2ZM18.5,18v-2c.43,0,.79-.14,1.08-.43s.43-.64.43-1.08-.14-.79-.43-1.08-.64-.43-1.08-.43H2v-2h16.5c.98,0,1.81.34,2.49,1.01s1.01,1.5,1.01,2.49-.34,1.81-1.01,2.49-1.5,1.01-2.49,1.01Z"/>
</svg>